<?xml version="1.0" standalone="no"?>
<!DOCTYPE svg PUBLIC "-//W3C//DTD SVG 20010904//EN"
 "http://www.w3.org/TR/2001/REC-SVG-20010904/DTD/svg10.dtd">
<svg version="1.0" xmlns="http://www.w3.org/2000/svg"
 width="2375.000000pt" height="2384.000000pt" viewBox="0 0 2375.000000 2384.000000"
 preserveAspectRatio="xMidYMid meet">

<g transform="translate(0.000000,2384.000000) scale(0.100000,-0.100000)"
fill="#000000" stroke="none">
<path d="M8570 19190 c-324 -32 -543 -149 -820 -436 -293 -304 -404 -549 -440
-970 -35 -411 105 -774 423 -1101 66 -67 167 -159 226 -205 58 -45 153 -129
211 -187 119 -120 186 -216 425 -611 260 -429 777 -1267 1133 -1835 599 -956
632 -1013 632 -1112 0 -49 -2 -55 -32 -73 -40 -24 -58 -23 -283 27 -530 116
-1474 377 -1606 444 -45 22 -147 107 -320 266 -168 154 -267 228 -389 291
-192 100 -355 135 -615 134 -411 -1 -672 -90 -952 -323 -406 -340 -614 -803
-564 -1258 33 -303 122 -554 269 -761 96 -135 323 -361 440 -438 221 -144 473
-216 797 -229 224 -8 325 14 670 150 178 70 181 71 270 70 123 -1 295 -37
1170 -247 402 -96 869 -207 1039 -246 533 -123 681 -177 743 -269 41 -61 29
-131 -42 -241 -50 -78 -111 -152 -356 -426 -395 -443 -737 -844 -1128 -1329
-467 -577 -579 -691 -736 -746 -32 -11 -122 -29 -199 -40 -329 -47 -538 -161
-837 -459 -75 -74 -157 -166 -183 -205 -122 -184 -216 -551 -216 -841 0 -295
84 -563 252 -799 80 -113 257 -294 367 -374 224 -163 511 -259 837 -279 447
-27 719 81 1078 428 147 143 222 241 291 384 86 177 126 347 160 686 39 382
93 494 411 849 269 300 378 437 954 1201 445 590 505 667 583 744 86 84 151
105 217 71 59 -31 72 -65 572 -1480 256 -725 251 -705 251 -840 0 -62 -9 -174
-21 -255 -49 -337 -36 -546 49 -810 138 -427 482 -785 899 -935 201 -72 472
-103 673 -76 350 47 674 209 932 466 219 217 324 423 372 727 24 154 25 566 0
680 -54 255 -250 529 -572 798 -80 67 -167 149 -195 183 -113 143 -195 330
-617 1427 -268 697 -319 846 -349 1024 -27 158 -19 194 131 615 59 165 74 258
85 512 9 227 23 373 40 439 16 61 170 224 1416 1496 l863 880 153 13 c392 32
647 115 892 288 109 78 286 257 368 373 290 411 342 864 158 1385 -59 165
-106 238 -280 431 -190 211 -377 364 -524 429 -177 78 -327 100 -686 99 -328
0 -371 -7 -539 -89 -404 -197 -664 -480 -795 -865 -19 -58 -53 -181 -74 -275
-42 -181 -94 -324 -139 -384 -57 -75 -304 -338 -1033 -1101 -461 -482 -664
-698 -831 -885 -302 -338 -413 -405 -535 -322 -101 68 -208 233 -542 832 -476
853 -604 1073 -1658 2840 -580 971 -614 1044 -628 1342 -3 61 -13 146 -21 188
-53 257 -203 523 -411 730 -224 223 -496 366 -762 400 -139 18 -414 26 -522
15z"/>
</g>
</svg>
